<?xml version="1.0" encoding="UTF-8" standalone="no"?>
<svg
   xmlns:dc="http://purl.org/dc/elements/1.1/"
   xmlns:cc="http://creativecommons.org/ns#"
   xmlns:rdf="http://www.w3.org/1999/02/22-rdf-syntax-ns#"
   xmlns:svg="http://www.w3.org/2000/svg"
   xmlns="http://www.w3.org/2000/svg"
   id="SVGRoot"
   version="1.1"
   viewBox="0 0 128 128"
   height="128px"
   width="128px">
  <defs
     id="defs815" />
  <metadata
     id="metadata818">
    <rdf:RDF>
      <cc:Work
         rdf:about="">
        <dc:format>image/svg+xml</dc:format>
        <dc:type
           rdf:resource="http://purl.org/dc/dcmitype/StillImage" />
        <dc:title></dc:title>
      </cc:Work>
    </rdf:RDF>
  </metadata>
  <g
     id="layer3">
    <path
       d="M 29.271475,110.88688 6.2891853,55.402731 C 2.0490553,45.166146 6.8765253,33.511604 17.113115,29.271472 L 72.597262,6.2891831 C 82.833847,2.0490508 94.488389,6.87652 98.728521,17.113105 l 22.982289,55.48415 c 4.24013,10.236585 -0.58734,21.891127 -10.82392,26.131259 L 55.402733,121.71081 C 45.166145,125.95094 33.511605,121.12347 29.271475,110.88688 Z M 6.2891853,72.597261 29.271475,17.113111 C 33.511605,6.8765257 45.166145,2.0490565 55.402732,6.2891889 L 110.88688,29.271476 c 10.23659,4.240132 15.06406,15.894674 10.82393,26.131259 L 98.728516,110.88689 c -4.240132,10.23658 -15.894675,15.06405 -26.13126,10.82392 L 17.113105,98.72852 C 6.8765253,94.488387 2.0490553,82.833846 6.2891853,72.597261 Z m 1.10295,-22.7394 L 49.85786,7.392133 c 7.834743,-7.83474309 20.449528,-7.83474309 28.284271,0 l 42.465729,42.46573 c 7.83475,7.834743 7.83475,20.449528 0,28.284271 L 78.142132,120.60787 c -7.834743,7.83474 -20.449528,7.83474 -28.284271,0 L 7.3921353,78.142132 c -7.83474005,-7.834743 -7.83474005,-20.449528 0,-28.284271 z M 33.972195,13.972197 h 60.055606 c 11.079999,0 19.999999,8.92 19.999999,20 v 60.05561 c 0,11.080003 -8.92,20.000003 -19.999999,20.000003 H 33.972195 c -11.08,0 -20,-8.92 -20,-20.000003 v -60.05561 c 0,-11.08 8.92,-20 20,-20 z"
       style="opacity:0.98999999;fill:#333333;fill-opacity:1;fill-rule:nonzero;stroke:none;stroke-width:2;stroke-miterlimit:4;stroke-dasharray:none;stroke-dashoffset:0;stroke-opacity:1"
       id="rect1605" />
  </g>
  <g
     id="layer1">
    <rect
       ry="20"
       rx="20"
       y="13.972195"
       x="13.972195"
       height="100.05561"
       width="100.05561"
       id="rect1371"
       style="opacity:0.98999999;fill:#333330;fill-opacity:0;stroke:#00c3e5;stroke-width:2;stroke-miterlimit:4;stroke-dasharray:none;stroke-dashoffset:0;stroke-opacity:1" />
    <rect
       transform="rotate(-45)"
       style="opacity:0.98999999;fill:none;stroke:#f7e359;stroke-width:2;stroke-miterlimit:4;stroke-dasharray:none;stroke-dashoffset:0;stroke-opacity:1"
       id="rect1373"
       width="100.05561"
       height="100.05561"
       x="-50.027805"
       y="40.481861"
       rx="20"
       ry="20" />
    <rect
       ry="20"
       rx="20"
       y="33.592224"
       x="-84.664352"
       height="100.05561"
       width="100.05561"
       id="rect1375"
       style="opacity:0.98999999;fill:none;stroke:#2fe29b;stroke-width:2;stroke-miterlimit:4;stroke-dasharray:none;stroke-dashoffset:0;stroke-opacity:1"
       transform="rotate(-67.5)" />
    <rect
       transform="rotate(-112.5)"
       style="opacity:0.98999999;fill:none;fill-rule:evenodd;stroke:#f56462;stroke-width:2;stroke-miterlimit:4;stroke-dasharray:none;stroke-dashoffset:0;stroke-opacity:1"
       id="rect1377"
       width="100.05561"
       height="100.05561"
       x="-133.64783"
       y="-15.391253"
       rx="20"
       ry="20" />
    <path
       id="path1397"
       d="M 47.552931,51.102137 80.25662,42.616856 70.533901,24.939187 42.603184,26.88373 37.830213,42.616856 Z"
       style="fill:#f7e350;fill-opacity:0;stroke:none;stroke-width:1px;stroke-linecap:butt;stroke-linejoin:miter;stroke-opacity:1" />
  </g>
</svg>
